<?xml version="1.0" encoding="utf-8"?>
<!-- Generator: Adobe Illustrator 22.0.0, SVG Export Plug-In . SVG Version: 6.00 Build 0)  -->
<svg version="1.1" id="Icon_Set" xmlns="http://www.w3.org/2000/svg" xmlns:xlink="http://www.w3.org/1999/xlink" x="0px" y="0px"
	 viewBox="0 0 64 64" style="enable-background:new 0 0 64 64;" xml:space="preserve">
<style type="text/css">
	.st0{fill:#40C4FF;}
	.st1{fill:#263238;}
	.st2{fill:#FFD740;}
	.st3{fill:#FF5252;}
	.st4{fill:#4DB6AC;}
	.st5{fill:#FFFFFF;}
	.st6{fill:#4FC3F7;}
	.st7{fill:#37474F;}
</style>
<g>
	<g>
		<path class="st0" d="M48.499,13h-21c-0.552,0-1-0.448-1-1V9c0-0.552,0.448-1,1-1h21V13z"/>
	</g>
	<g>
		<path class="st1" d="M13.504,18.5c-3.032,0-5.5-2.467-5.5-5.5s2.468-5.5,5.5-5.5s5.5,2.467,5.5,5.5S16.536,18.5,13.504,18.5z
			 M13.504,8.5c-2.481,0-4.5,2.019-4.5,4.5s2.019,4.5,4.5,4.5s4.5-2.019,4.5-4.5S15.985,8.5,13.504,8.5z"/>
	</g>
	<g>
		<path class="st2" d="M16.971,10.109l0.373-0.31C16.427,8.7,15.048,8,13.504,8c-2.761,0-5,2.239-5,5h0.472
			C11.897,13,14.726,11.977,16.971,10.109z"/>
		<path class="st1" d="M8.977,13.5H8.504c-0.276,0-0.5-0.224-0.5-0.5c0-3.033,2.468-5.5,5.5-5.5c1.635,0,3.175,0.721,4.224,1.979
			c0.085,0.102,0.126,0.233,0.114,0.365c-0.012,0.132-0.076,0.254-0.178,0.339l-0.372,0.31c0,0,0,0-0.001,0
			C14.96,12.432,12.008,13.5,8.977,13.5z M13.504,8.5c-2.312,0-4.223,1.753-4.473,4c2.764-0.013,5.454-0.987,7.587-2.748
			C15.784,8.951,14.674,8.5,13.504,8.5z"/>
	</g>
	<g>
		<path class="st1" d="M13.5,23.468c-0.181,0-0.348-0.098-0.437-0.255L10.56,18.75c-0.041-0.075-0.063-0.159-0.063-0.244
			l-0.001-1.204c0-0.179,0.096-0.345,0.251-0.434c0.156-0.089,0.348-0.088,0.502,0.002c1.422,0.833,3.065,0.838,4.496,0.009
			c0.155-0.089,0.344-0.09,0.501,0c0.154,0.089,0.25,0.254,0.25,0.433l0.001,1.184c0,0.085-0.021,0.169-0.063,0.244l-2.496,4.473
			C13.849,23.37,13.682,23.468,13.5,23.468C13.5,23.468,13.5,23.468,13.5,23.468z M11.496,18.374l2.003,3.57l1.997-3.579v-0.254
			c-1.292,0.52-2.715,0.516-4-0.006V18.374z"/>
	</g>
	<g>
		<path class="st1" d="M21.504,25c-0.276,0-0.5-0.224-0.5-0.5v-1.891c0-0.782-0.46-1.497-1.172-1.821l-4.044-1.838
			c-0.251-0.114-0.362-0.411-0.248-0.662s0.411-0.362,0.662-0.248l4.044,1.838c1.067,0.485,1.758,1.557,1.758,2.731V24.5
			C22.004,24.776,21.78,25,21.504,25z"/>
	</g>
	<g>
		<path class="st1" d="M5.5,25C5.224,25,5,24.776,5,24.5v-1.89c0-1.174,0.69-2.246,1.759-2.731l4.03-1.829
			c0.253-0.115,0.549-0.003,0.662,0.249c0.114,0.251,0.003,0.548-0.248,0.662l-4.03,1.829C6.46,21.113,6,21.828,6,22.61v1.89
			C6,24.776,5.776,25,5.5,25z"/>
	</g>
	<g>
		<path class="st1" d="M57.499,13.5h-30c-0.827,0-1.5-0.673-1.5-1.5V9c0-0.827,0.673-1.5,1.5-1.5h30c0.827,0,1.5,0.673,1.5,1.5v3
			C58.999,12.827,58.326,13.5,57.499,13.5z M27.499,8.5c-0.275,0-0.5,0.224-0.5,0.5v3c0,0.276,0.225,0.5,0.5,0.5h30
			c0.275,0,0.5-0.224,0.5-0.5V9c0-0.276-0.225-0.5-0.5-0.5H27.499z"/>
	</g>
	<g>
		<path class="st1" d="M48.499,15c-0.276,0-0.5-0.224-0.5-0.5v-8c0-0.276,0.224-0.5,0.5-0.5s0.5,0.224,0.5,0.5v8
			C48.999,14.776,48.775,15,48.499,15z"/>
	</g>
	<g>
		<path class="st3" d="M43.499,24.5h-16c-0.552,0-1-0.448-1-1v-3c0-0.552,0.448-1,1-1h16V24.5z"/>
	</g>
	<g>
		<path class="st1" d="M57.499,25h-30c-0.827,0-1.5-0.673-1.5-1.5v-3c0-0.827,0.673-1.5,1.5-1.5h30c0.827,0,1.5,0.673,1.5,1.5v3
			C58.999,24.327,58.326,25,57.499,25z M27.499,20c-0.275,0-0.5,0.224-0.5,0.5v3c0,0.276,0.225,0.5,0.5,0.5h30
			c0.275,0,0.5-0.224,0.5-0.5v-3c0-0.276-0.225-0.5-0.5-0.5H27.499z"/>
	</g>
	<g>
		<path class="st1" d="M43.499,26.5c-0.276,0-0.5-0.224-0.5-0.5v-8c0-0.276,0.224-0.5,0.5-0.5s0.5,0.224,0.5,0.5v8
			C43.999,26.276,43.775,26.5,43.499,26.5z"/>
	</g>
	<g>
		<path class="st1" d="M43.499,5.5h-10c-0.276,0-0.5-0.224-0.5-0.5s0.224-0.5,0.5-0.5h10c0.276,0,0.5,0.224,0.5,0.5
			S43.775,5.5,43.499,5.5z"/>
	</g>
	<g>
		<path class="st1" d="M31.499,5.5h-1c-0.276,0-0.5-0.224-0.5-0.5s0.224-0.5,0.5-0.5h1c0.276,0,0.5,0.224,0.5,0.5
			S31.775,5.5,31.499,5.5z"/>
	</g>
	<g>
		<path class="st0" d="M43.499,44.5h-16c-0.552,0-1-0.448-1-1v-3c0-0.552,0.448-1,1-1h16V44.5z"/>
	</g>
	<g>
		<path class="st1" d="M13.504,50c-3.032,0-5.5-2.467-5.5-5.5s2.468-5.5,5.5-5.5s5.5,2.467,5.5,5.5S16.536,50,13.504,50z M13.504,40
			c-2.481,0-4.5,2.019-4.5,4.5s2.019,4.5,4.5,4.5s4.5-2.019,4.5-4.5S15.985,40,13.504,40z"/>
	</g>
	<g>
		<path class="st2" d="M16.971,41.609l0.373-0.31c-0.917-1.099-2.296-1.799-3.84-1.799c-2.761,0-5,2.239-5,5h0.472
			C11.897,44.5,14.726,43.477,16.971,41.609z"/>
		<path class="st1" d="M8.977,45H8.504c-0.276,0-0.5-0.224-0.5-0.5c0-3.033,2.468-5.5,5.5-5.5c1.635,0,3.175,0.721,4.224,1.979
			c0.085,0.102,0.126,0.233,0.114,0.365c-0.012,0.132-0.076,0.254-0.178,0.339l-0.372,0.31c0,0,0,0-0.001,0
			C14.96,43.932,12.008,45,8.977,45z M13.504,40c-2.312,0-4.223,1.753-4.473,4c2.764-0.013,5.454-0.987,7.587-2.748
			C15.784,40.451,14.674,40,13.504,40z"/>
	</g>
	<g>
		<path class="st1" d="M13.5,54.968c-0.181,0-0.348-0.098-0.437-0.255L10.56,50.25c-0.041-0.075-0.063-0.159-0.063-0.244
			l-0.001-1.204c0-0.179,0.096-0.345,0.251-0.434c0.156-0.089,0.348-0.088,0.502,0.002c1.422,0.833,3.065,0.838,4.496,0.009
			c0.155-0.089,0.344-0.09,0.501,0c0.154,0.089,0.25,0.254,0.25,0.433l0.001,1.184c0,0.085-0.021,0.169-0.063,0.244l-2.496,4.473
			C13.849,54.87,13.682,54.968,13.5,54.968C13.5,54.968,13.5,54.968,13.5,54.968z M11.496,49.874l2.003,3.57l1.997-3.579v-0.254
			c-1.292,0.521-2.715,0.516-4-0.006V49.874z"/>
	</g>
	<g>
		<path class="st1" d="M21.504,56.5c-0.276,0-0.5-0.224-0.5-0.5v-1.891c0-0.782-0.46-1.497-1.172-1.821l-4.044-1.838
			c-0.251-0.114-0.362-0.411-0.248-0.662c0.114-0.251,0.411-0.361,0.662-0.248l4.044,1.838c1.067,0.485,1.758,1.557,1.758,2.731V56
			C22.004,56.276,21.78,56.5,21.504,56.5z"/>
	</g>
	<g>
		<path class="st1" d="M5.5,56.5C5.224,56.5,5,56.276,5,56v-1.89c0-1.174,0.69-2.246,1.759-2.731l4.03-1.829
			c0.253-0.113,0.549-0.003,0.662,0.249c0.114,0.251,0.003,0.548-0.248,0.662l-4.03,1.829C6.46,52.613,6,53.328,6,54.11V56
			C6,56.276,5.776,56.5,5.5,56.5z"/>
	</g>
	<g>
		<path class="st1" d="M57.499,45h-30c-0.827,0-1.5-0.673-1.5-1.5v-3c0-0.827,0.673-1.5,1.5-1.5h30c0.827,0,1.5,0.673,1.5,1.5v3
			C58.999,44.327,58.326,45,57.499,45z M27.499,40c-0.275,0-0.5,0.224-0.5,0.5v3c0,0.276,0.225,0.5,0.5,0.5h30
			c0.275,0,0.5-0.224,0.5-0.5v-3c0-0.276-0.225-0.5-0.5-0.5H27.499z"/>
	</g>
	<g>
		<path class="st1" d="M43.499,46.5c-0.276,0-0.5-0.224-0.5-0.5v-8c0-0.276,0.224-0.5,0.5-0.5s0.5,0.224,0.5,0.5v8
			C43.999,46.276,43.775,46.5,43.499,46.5z"/>
	</g>
	<g>
		<path class="st3" d="M48.499,56h-21c-0.552,0-1-0.448-1-1v-3c0-0.552,0.448-1,1-1h21V56z"/>
	</g>
	<g>
		<path class="st1" d="M57.499,56.5h-30c-0.827,0-1.5-0.673-1.5-1.5v-3c0-0.827,0.673-1.5,1.5-1.5h30c0.827,0,1.5,0.673,1.5,1.5v3
			C58.999,55.827,58.326,56.5,57.499,56.5z M27.499,51.5c-0.275,0-0.5,0.224-0.5,0.5v3c0,0.276,0.225,0.5,0.5,0.5h30
			c0.275,0,0.5-0.224,0.5-0.5v-3c0-0.276-0.225-0.5-0.5-0.5H27.499z"/>
	</g>
	<g>
		<path class="st1" d="M48.499,58c-0.276,0-0.5-0.224-0.5-0.5v-8c0-0.276,0.224-0.5,0.5-0.5s0.5,0.224,0.5,0.5v8
			C48.999,57.776,48.775,58,48.499,58z"/>
	</g>
	<g>
		<path class="st1" d="M40.499,59.5h-10c-0.276,0-0.5-0.224-0.5-0.5s0.224-0.5,0.5-0.5h10c0.276,0,0.5,0.224,0.5,0.5
			S40.775,59.5,40.499,59.5z"/>
	</g>
	<g>
		<path class="st1" d="M43.499,59.5h-1c-0.276,0-0.5-0.224-0.5-0.5s0.224-0.5,0.5-0.5h1c0.276,0,0.5,0.224,0.5,0.5
			S43.775,59.5,43.499,59.5z"/>
	</g>
</g>
</svg>
